<?xml version="1.0" encoding="utf-8"?>
<!-- Generator: Adobe Illustrator 26.0.3, SVG Export Plug-In . SVG Version: 6.00 Build 0)  -->
<svg version="1.1" id="Capa_1" xmlns="http://www.w3.org/2000/svg" xmlns:xlink="http://www.w3.org/1999/xlink" x="0px" y="0px"
	 viewBox="0 0 512 512" style="enable-background:new 0 0 512 512;" xml:space="preserve">
<style type="text/css">
</style>
<g>
	<path class="st0" d="M254.2,335.1c83.5,0,158.7-21.1,210.9-54.8c-8.5-285-413.5-284.8-421.9,0C95.5,314,170.7,335.1,254.2,335.1z" 
		/>
	<g>
		<path d="M509.1,286.3c0.4-9.1-15.4-8.5-21.8-12.1c8.8-3.9,3.5-17.8,5-25.5c-0.4-6.6-8.6-3.8-13-5.3c-10.4-0.3-11.7-13.4-18.2-19.4
			C382.7-21.5,75.4,14.7,32.9,262.5c-7.5,4.2-33.4,6.4-29.6,17.7c4.4,9.4-0.8,20.8,5.6,29.2c1.8,3.8,3.4,9,8.2,4.9
			c5,4.2,10.1,8.6,15.5,12.2c2.8,4,5.2,8.3,8.1,12.4c8.1,12.1,21.1,19.1,31.5,28.9c6.3,6.7,13.3-4,20.1,5.6
			c4.4,6.2,8.1,40.8,15.8,40.2c3.2-0.5,10.1,0.4,9.2-4.6c-1.7-9.8-14.2-49.3,7.6-29.6c6.1,4.9,13,8.7,19.1,13.5
			c2.4,3.2,5.9,5.1,9.3,7.1c8.7,2.6,19.4,0.4,27.7,3.7c7.5,17.4,5,10.2,21,17.9c0.9,0.4,2,1.3,2.1,2.1c0.5,5.1,3.1,9.5,5.1,14
			c2.8,6.2,12,17.6,19.3,16.6c4.7-1.1,31.2-2.6,28.5-8.9c-1.3-8.1-1.9-20.8,8.4-22.5c2.6,3.9,29.8-8.2,35.4-9.6
			c21.8-8.6,7.5-14.9,30.7-21.7c1.6,5.6,6.5,1.6,10.2,1.3c3.5,0,4.6-3.6,5.2-6.3c0.8-4.6,15.6-8.7,20.2-11.2
			c-1.4,5.8,1.1,15.9-1.4,20c-0.6,0.6-0.3,2.1-0.4,3.3c0.2,0.1,0.4,0.1,0.6,0.2c0.4-0.4,0.8-0.8,1-1c2.5,1.7,2.6-0.3,3.1-2.1
			c2.6-0.8,0.3-3.6,0.2-5.3c-0.7-6.1,3.6-0.8,3-7.2c4.2,1.6-2.4,6.2,0.2,8.4c1.9,0.8,0.4,2.1,1.5,3.7c1.8-1.1,1.8-4.2,3.8-2.8
			c0.6,0.4,1.8,0.7,2.1,0.4c1.9-1,0-5.1-2.1-3.4c-0.3,0.2-0.8,0.1-1.3,0.2c0-2.2,0-4.2,0-6.4c2.2,1,1.7,5.1,5.2,4.2
			c3.9,15.2-2.2,4.1-3.1,10.6c0.6,1.9-0.7,6.3,1.8,6.7c3-1.4-0.4-6.7,3.8-5.5c1-2.2,3.2-0.7,4.5-1.6c0.8,3.1,1.6,6,2.4,9
			c0.2,0,0.4-0.1,0.6-0.1c0.9-5.5,1.7-10.9,2.6-16.5c0.8,2.4,1.5,4.8,3.5,6.5c0.6-3,0.9-6,0.9-9c0.1-3.2,0-3.2,2.8-4.4
			c0.6,1.2,1.2,2.3,1.9,3.7c2.6-2.4,1.6-5.2,2.4-7.8c2.7-2.8,5.2-5.9,9.8-5.9c11.8-5.9,14.8-19.7,20-30.9c6.1,3,13.7-11.4,24.6-11.7
			c11.5-2,14.9-15.8,25.8-20.2c0.5,4.3-3.2,19.2,1.5,20c5.2,0,4.5-22.9,10.1-25.7c4.8,6.1,9.7,3.5,4.4-2.5
			C500.4,297.8,509.1,291.6,509.1,286.3z M252.2,70.2c4.4,0,8.8,0.2,13.2,0.5c-4.6,1.6-9.2,3.6-13.7,5.9c-4.9-2.3-9.9-4.2-15-5.7
			C241.9,70.4,247,70.2,252.2,70.2z M81.9,286.6c-11.4-3.2-22.6-7.2-33.8-11c3-91.8,68.6-179.5,159-200.1c11.8,0.7,23.5,2,34.7,6.7
			c-66.5,46.1-92.7,131.4-94.7,217.3C125.2,296.6,103.4,292.5,81.9,286.6z M329.9,302.8c-63.3,5.7-116.7,4.4-173.6-2.1
			c1.7-84.6,27.8-171.5,95.6-213.9c69.5,40.5,96.6,129,98.7,213.8C343.7,301.4,336.8,302.1,329.9,302.8z M390,395
			c-1.4-1.3-1.4-2.4,0.3-3.7C390.2,392.8,390.1,393.8,390,395z M402.6,291.9c-14.2,3.1-28.6,5.5-43,7.5
			c-2.3-86-29.6-173.2-97.9-217.5c25.1-12.5,45.7-5.4,69.8,5.2c73.2,32.1,122.1,109.4,124.8,189.1
			C438.9,283,420.9,287.9,402.6,291.9z"/>
		<path d="M377.7,413c0.2-2.7-0.8-4.9-2.5-7c-0.5,0.6-0.8,1-1.2,1.5c-0.1-0.1-0.2-0.2-0.3-0.3c-3.7-0.1-4.6,4.5-2.4,6.8
			c1.3,1.2,3.8,0.4,5.2,0.4c0.2,3.7-2.2,8,1.3,10.5c3.3-2,2.6-8.4,0-11C377.6,413.7,377.7,413.3,377.7,413z"/>
		<path d="M408.7,388c-2.6-0.8-2.8,2.4-3.9,4.1c-2.7-1.7-5.4,3.1-2.1,4.3c1.8,0.6,2.7-0.4,3.2-2.2
			C411.4,397.4,412.5,389.5,408.7,388z"/>
		<path d="M405.3,402.7c-2.1,2-0.1,10.2,1,12.7c0.2,0,0.4,0,0.6,0C407.7,411.5,408.1,405.9,405.3,402.7z"/>
		<path d="M387.8,417.4c0-4.8-4.7-4-4-0.1c0.3,5,2.4,5.2,4.5,0.4C388.1,417.6,388,417.5,387.8,417.4z"/>
		<path d="M372.2,421.9c-0.7,2.3-0.8,8.5,2.5,8.9C375.3,427.7,375.4,423.3,372.2,421.9z"/>
		<path d="M400.9,402.8c-0.9,0.2-1.6,1.1-2.4,1.7C400.1,412,407.1,403.8,400.9,402.8z"/>
		<path d="M392,414.9c1.7-1.6,1.2-5.9-0.9-7.9C390,409,390.5,413.2,392,414.9z"/>
		<path d="M396.9,422.8c1.2-2.1,1-4.1,0.3-6.5C395.4,418.7,395.2,421.6,396.9,422.8z"/>
		<path d="M387.8,437.2c-1.1,1.5-1.1,2.5,0.5,3.6c1.6-1.3,1.6-2.2,0.2-3.7C388.3,437.1,388.1,437.1,387.8,437.2z"/>
		<path d="M387.2,407.4c0.2-1.5,0.5-2.6,0.6-3.8C386,401.6,385.5,406.3,387.2,407.4z"/>
		<path d="M377.5,400.2c-0.1-1-0.1-2-0.2-3.3C374.4,398.1,374.8,400.7,377.5,400.2z"/>
	</g>
</g>
</svg>
