<?xml version="1.0" encoding="utf-8"?>
<!-- Generator: Adobe Illustrator 26.2.1, SVG Export Plug-In . SVG Version: 6.00 Build 0)  -->
<svg version="1.1" id="Capa_1" xmlns="http://www.w3.org/2000/svg" xmlns:xlink="http://www.w3.org/1999/xlink" x="0px" y="0px"
	 viewBox="0 0 250 208.3" style="enable-background:new 0 0 250 208.3;" xml:space="preserve">
<style type="text/css">
	.st0{fill:#15AD85;}
	.st1{fill:#02EEB5;}
	.st2{fill:#FFFFFF;}
</style>
<g>
	<g>
		<polygon class="st0" points="49.2,14.4 22.5,41.1 22.5,185.1 194.9,185.1 236,144 236,14.4 		"/>
	</g>
	<path class="st1" d="M143.7,0v3.9h102.4v147.9L202.9,195c-60.4,0-128.5,0-189.2,0V38.2L48,3.9h29.7V0H46.3L9.7,36.6v106.6L0,152.9
		v55.3h44.3l9.3-9.3c50.5,0,100,0,150.9,0l45.5-45.5V0H143.7z"/>
</g>
<path class="st2" d="M169,63.4c-7.3-3.4-15.2-5.8-23.4-7.3c-0.1,0-0.3,0-0.4,0.2c-1,1.8-2.1,4.1-2.9,6c-8.8-1.3-17.6-1.3-26.3,0
	c-0.8-1.9-1.9-4.2-3-6c-0.1-0.1-0.2-0.2-0.4-0.2c-8.2,1.4-16.1,3.9-23.4,7.3c-0.1,0-0.1,0.1-0.2,0.1c-14.9,22.3-19,44-17,65.4
	c0,0.1,0.1,0.2,0.1,0.3c9.8,7.2,19.4,11.6,28.7,14.5c0.1,0,0.3,0,0.4-0.1c2.2-3,4.2-6.2,5.9-9.6c0.1-0.2,0-0.4-0.2-0.5
	c-3.1-1.2-6.1-2.6-9-4.3c-0.2-0.1-0.2-0.5,0-0.6c0.6-0.5,1.2-0.9,1.8-1.4c0.1-0.1,0.2-0.1,0.4-0.1c18.8,8.6,39.2,8.6,57.8,0
	c0.1-0.1,0.3,0,0.4,0c0.6,0.5,1.2,0.9,1.8,1.4c0.2,0.2,0.2,0.5,0,0.6c-2.9,1.7-5.8,3.1-9,4.3c-0.2,0.1-0.3,0.3-0.2,0.5
	c1.7,3.3,3.7,6.5,5.9,9.5c0.1,0.1,0.3,0.2,0.4,0.1c9.4-2.9,18.9-7.3,28.7-14.5c0.1-0.1,0.1-0.2,0.1-0.3c2.4-24.8-4-46.3-17-65.4
	C169.1,63.5,169,63.4,169,63.4z M110.1,115.9c-5.7,0-10.3-5.2-10.3-11.6c0-6.4,4.6-11.6,10.3-11.6c5.8,0,10.4,5.2,10.3,11.6
	C120.4,110.7,115.8,115.9,110.1,115.9z M148.3,115.9c-5.7,0-10.3-5.2-10.3-11.6c0-6.4,4.6-11.6,10.3-11.6c5.8,0,10.4,5.2,10.3,11.6
	C158.6,110.7,154.1,115.9,148.3,115.9z"/>
</svg>
