<?xml version="1.0" encoding="utf-8"?>
<!-- Generator: Adobe Illustrator 26.2.1, SVG Export Plug-In . SVG Version: 6.00 Build 0)  -->
<svg version="1.1" id="Capa_1" xmlns="http://www.w3.org/2000/svg" xmlns:xlink="http://www.w3.org/1999/xlink" x="0px" y="0px"
	 viewBox="0 0 250 208.3" style="enable-background:new 0 0 250 208.3;" xml:space="preserve">
<style type="text/css">
	.st0{fill:#15AD85;}
	.st1{fill:#02EEB5;}
	.st2{fill:#FFFFFF;}
</style>
<g>
	<g>
		<polygon class="st0" points="49.2,14.4 22.5,41.1 22.5,185.1 194.9,185.1 236,144 236,14.4 		"/>
	</g>
	<path class="st1" d="M143.7,0v3.9h102.4v147.9L202.9,195c-60.4,0-128.5,0-189.2,0V38.2L48,3.9h29.7V0H46.3L9.7,36.6v106.6L0,152.9
		v55.3h44.3l9.3-9.3c50.5,0,100,0,150.9,0l45.5-45.5V0H143.7z"/>
</g>
<g>
	<path class="st2" d="M130,55.1c14.7,0,16.4,0.1,22.2,0.3c5.4,0.2,8.3,1.1,10.2,1.9c2.6,1,4.4,2.2,6.3,4.1c1.9,1.9,3.1,3.8,4.1,6.3
		c0.8,1.9,1.6,4.8,1.9,10.2c0.3,5.8,0.3,7.5,0.3,22.2c0,14.7-0.1,16.4-0.3,22.2c-0.2,5.4-1.1,8.3-1.9,10.2c-1,2.6-2.2,4.4-4.1,6.3
		c-1.9,1.9-3.8,3.1-6.3,4.1c-1.9,0.8-4.8,1.6-10.2,1.9c-5.8,0.3-7.5,0.3-22.2,0.3s-16.4-0.1-22.2-0.3c-5.4-0.2-8.3-1.1-10.2-1.9
		c-2.6-1-4.4-2.2-6.3-4.1c-1.9-1.9-3.1-3.8-4.1-6.3c-0.8-1.9-1.6-4.8-1.9-10.2c-0.3-5.8-0.3-7.5-0.3-22.2C85,85.5,85,83.7,85.3,78
		c0.2-5.4,1.1-8.3,1.9-10.2c1-2.6,2.2-4.4,4.1-6.3c1.9-1.9,3.8-3.1,6.3-4.1c1.9-0.8,4.8-1.6,10.2-1.9
		C113.6,55.2,115.3,55.1,130,55.1 M130,45.2c-14.9,0-16.8,0.1-22.6,0.3c-5.8,0.3-9.8,1.2-13.3,2.6c-3.6,1.4-6.7,3.3-9.7,6.3
		c-3.1,3.1-4.9,6.1-6.3,9.7c-1.4,3.5-2.3,7.5-2.6,13.3c-0.3,5.9-0.3,7.7-0.3,22.6c0,14.9,0.1,16.8,0.3,22.6
		c0.3,5.8,1.2,9.8,2.6,13.3c1.4,3.6,3.3,6.7,6.3,9.7c3.1,3.1,6.1,4.9,9.7,6.3c3.5,1.4,7.5,2.3,13.3,2.6c5.9,0.3,7.7,0.3,22.6,0.3
		c14.9,0,16.8-0.1,22.6-0.3c5.8-0.3,9.8-1.2,13.3-2.6c3.6-1.4,6.7-3.3,9.7-6.3c3.1-3.1,4.9-6.1,6.3-9.7c1.4-3.5,2.3-7.5,2.6-13.3
		c0.3-5.9,0.3-7.7,0.3-22.6c0-14.9-0.1-16.8-0.3-22.6c-0.3-5.8-1.2-9.8-2.6-13.3c-1.4-3.6-3.3-6.7-6.3-9.7c-3.1-3.1-6.1-4.9-9.7-6.3
		c-3.5-1.4-7.5-2.3-13.3-2.6C146.8,45.3,144.9,45.2,130,45.2L130,45.2z"/>
	<path class="st2" d="M130,72c-15.6,0-28.2,12.6-28.2,28.2s12.6,28.2,28.2,28.2s28.2-12.6,28.2-28.2S145.6,72,130,72z M130,118.4
		c-10.1,0-18.3-8.2-18.3-18.3s8.2-18.3,18.3-18.3c10.1,0,18.3,8.2,18.3,18.3S140.1,118.4,130,118.4z"/>
	<circle class="st2" cx="159.3" cy="70.8" r="6.6"/>
</g>
</svg>
