<?xml version="1.0" encoding="utf-8"?>
<!-- Generator: Adobe Illustrator 26.2.1, SVG Export Plug-In . SVG Version: 6.00 Build 0)  -->
<svg version="1.1" id="Capa_1" xmlns="http://www.w3.org/2000/svg" xmlns:xlink="http://www.w3.org/1999/xlink" x="0px" y="0px"
	 viewBox="0 0 250 208.3" style="enable-background:new 0 0 250 208.3;" xml:space="preserve">
<style type="text/css">
	.st0{fill:#15AD85;}
	.st1{fill:#02EEB5;}
	.st2{fill:#FFFFFF;}
</style>
<g>
	<g>
		<polygon class="st0" points="49.2,14.4 22.5,41.1 22.5,185.1 194.9,185.1 236,144 236,14.4 		"/>
	</g>
	<path class="st1" d="M143.7,0v3.9h102.4v147.9L202.9,195c-60.4,0-128.5,0-189.2,0V38.2L48,3.9h29.7V0H46.3L9.7,36.6v106.6L0,152.9
		v55.3h44.3l9.3-9.3c50.5,0,100,0,150.9,0l45.5-45.5V0H143.7z"/>
</g>
<path class="st2" d="M190.3,62.6c-4.4,2-9.2,3.3-14.2,3.9c5.1-3.1,9-7.9,10.8-13.6c-4.8,2.8-10,4.9-15.7,6c-4.5-4.8-10.9-7.8-18-7.8
	c-13.6,0-24.7,11-24.7,24.7c0,1.9,0.2,3.8,0.6,5.6c-20.5-1-38.7-10.8-50.8-25.8c-2.1,3.6-3.3,7.9-3.3,12.4c0,8.6,4.4,16.1,11,20.5
	c-4-0.1-7.8-1.2-11.2-3.1c0,0.1,0,0.2,0,0.3c0,12,8.5,21.9,19.8,24.2c-2.1,0.6-4.2,0.9-6.5,0.9c-1.6,0-3.1-0.2-4.6-0.4
	c3.1,9.8,12.2,16.9,23,17.1C98.2,134.1,87.5,138,76,138c-2,0-4-0.1-5.9-0.3c10.9,7,23.9,11.1,37.8,11.1c45.4,0,70.2-37.6,70.2-70.2
	c0-1.1,0-2.1-0.1-3.2C182.8,71.9,187,67.6,190.3,62.6z"/>
</svg>
