<?xml version="1.0" encoding="utf-8"?>
<!-- Generator: Adobe Illustrator 26.2.1, SVG Export Plug-In . SVG Version: 6.00 Build 0)  -->
<svg version="1.1" id="Capa_1" xmlns="http://www.w3.org/2000/svg" xmlns:xlink="http://www.w3.org/1999/xlink" x="0px" y="0px"
	 viewBox="0 0 250 250" style="enable-background:new 0 0 250 250;" xml:space="preserve">
<style type="text/css">
	.st0{fill:#FFFFFF;}
</style>
<path class="st0" d="M212,45.6c-15.9-7.4-33.1-12.6-50.9-15.9c-0.2,0-0.7,0-0.9,0.4c-2.2,3.9-4.6,8.9-6.3,13
	c-19.1-2.8-38.3-2.8-57.2,0c-1.7-4.1-4.1-9.1-6.5-13c-0.2-0.2-0.4-0.4-0.9-0.4c-17.8,3-35,8.5-50.9,15.9c-0.2,0-0.2,0.2-0.4,0.2
	C5.6,94.3-3.3,141.5,1,188.1c0,0.2,0.2,0.4,0.2,0.7c21.3,15.7,42.2,25.2,62.4,31.5c0.2,0,0.7,0,0.9-0.2c4.8-6.5,9.1-13.5,12.8-20.9
	c0.2-0.4,0-0.9-0.4-1.1c-6.7-2.6-13.3-5.7-19.6-9.4c-0.4-0.2-0.4-1.1,0-1.3c1.3-1.1,2.6-2,3.9-3c0.2-0.2,0.4-0.2,0.9-0.2
	c40.9,18.7,85.2,18.7,125.7,0c0.2-0.2,0.7,0,0.9,0c1.3,1.1,2.6,2,3.9,3c0.4,0.4,0.4,1.1,0,1.3c-6.3,3.7-12.6,6.7-19.6,9.4
	c-0.4,0.2-0.7,0.7-0.4,1.1c3.7,7.2,8,14.1,12.8,20.7c0.2,0.2,0.7,0.4,0.9,0.2c20.4-6.3,41.1-15.9,62.4-31.5c0.2-0.2,0.2-0.4,0.2-0.7
	c5.2-53.9-8.7-100.7-37-142.2C212.2,45.8,212,45.6,212,45.6z M83.9,159.8c-12.4,0-22.4-11.3-22.4-25.2s10-25.2,22.4-25.2
	c12.6,0,22.6,11.3,22.4,25.2C106.3,148.5,96.3,159.8,83.9,159.8z M166.9,159.8c-12.4,0-22.4-11.3-22.4-25.2s10-25.2,22.4-25.2
	c12.6,0,22.6,11.3,22.4,25.2C189.3,148.5,179.6,159.8,166.9,159.8z"/>
</svg>
