<svg width="25" height="25" viewBox="0 0 25 25" fill="none" xmlns="http://www.w3.org/2000/svg">
<g clip-path="url(#clip0_556_2316)">
<path d="M23.9333 12.6808C23.9333 14.344 23.9001 16.0119 23.9428 17.675C24.0139 20.619 22.1798 22.8939 19.8433 23.9071C18.9049 24.3133 17.9192 24.5283 16.9002 24.5283C13.7107 24.5331 10.5164 24.5761 7.32691 24.514C4.9241 24.4662 2.94783 23.453 1.53078 21.4553C0.78672 20.4039 0.431274 19.2091 0.431274 17.914C0.431274 14.4873 0.431274 11.0655 0.431274 7.63881C0.431274 4.843 1.78197 2.88832 4.18004 1.61707C5.22268 1.06747 6.35536 0.833287 7.53544 0.828508C10.6302 0.828508 13.7297 0.809391 16.8244 0.838066C19.2272 0.857183 21.2319 1.78434 22.7106 3.73424C23.5352 4.82388 23.9333 6.07602 23.9333 7.45242C23.9333 9.19203 23.9333 10.9364 23.9333 12.6808ZM2.18007 12.6808C2.18007 14.4348 2.18007 16.1839 2.18007 17.9379C2.18007 18.7217 2.36016 19.4577 2.763 20.122C3.81985 21.8664 5.41699 22.717 7.398 22.7505C10.5781 22.7983 13.7628 22.7696 16.9476 22.7601C17.7296 22.7601 18.4879 22.5976 19.194 22.2582C21.1182 21.3311 22.194 19.8543 22.1845 17.6368C22.1656 14.2436 22.1798 10.8504 22.1798 7.4572C22.1798 6.49659 21.9096 5.61722 21.3457 4.843C20.2556 3.35668 18.7486 2.62547 16.9476 2.60635C13.7723 2.56812 10.597 2.59202 7.4217 2.5968C6.74398 2.5968 6.08996 2.73539 5.4549 2.97435C3.71085 3.62909 2.09002 5.28746 2.16585 7.72961C2.22272 9.3832 2.18007 11.032 2.18007 12.6808Z" fill="white"/>
<path d="M12.2084 17.747C9.15154 17.747 6.68712 15.2905 6.68238 12.2318C6.67764 9.22094 9.16102 6.75489 12.1989 6.75489C15.2462 6.75011 17.7201 9.21138 17.7249 12.2461C17.7249 15.2761 15.2557 17.7422 12.2084 17.747ZM12.2084 15.9787C14.2889 15.9787 15.9761 14.3012 15.9713 12.2366C15.9666 10.1911 14.2794 8.5184 12.2084 8.5184C10.1278 8.5184 8.43117 10.1863 8.43117 12.2461C8.43591 14.3107 10.1278 15.9834 12.2084 15.9787Z" fill="white"/>
<path d="M18.3647 5.08203C19.0045 5.08203 19.5258 5.63163 19.5258 6.30549C19.521 6.97935 18.995 7.52418 18.3552 7.5194C17.7249 7.51462 17.2083 6.9698 17.2083 6.31027C17.2035 5.63641 17.7249 5.08203 18.3647 5.08203Z" fill="white"/>
</g>
<defs>
<clipPath id="clip0_556_2316">
<rect width="24.2651" height="24.4693" fill="white" transform="translate(0 0.398438)"/>
</clipPath>
</defs>
</svg>
