<svg width="28" height="28" viewBox="0 0 28 28" fill="none" xmlns="http://www.w3.org/2000/svg">
<g clip-path="url(#clip0_556_2325)">
<path d="M22.8295 24.092H4.61614C3.52613 24.0905 2.48119 23.6417 1.71051 22.844C0.939833 22.0463 0.506343 20.9648 0.505127 19.8368V7.91745C0.506344 6.78951 0.939858 5.70813 1.71056 4.91055C2.48126 4.11298 3.5262 3.66435 4.61614 3.66309H22.8295C23.9195 3.66434 24.9645 4.11295 25.7353 4.9105C26.5062 5.70806 26.9399 6.78944 26.9413 7.91745V19.8368C26.9401 20.965 26.5065 22.0466 25.7356 22.8443C24.9648 23.642 23.9196 24.0907 22.8295 24.092ZM4.61614 5.64555C4.03408 5.64618 3.47604 5.88574 3.06446 6.31167C2.65289 6.7376 2.4214 7.3151 2.42079 7.91745V19.8368C2.4212 20.4393 2.6526 21.017 3.06419 21.4431C3.47579 21.8692 4.03395 22.1089 4.61614 22.1095H22.8295C23.4118 22.1089 23.97 21.8692 24.3817 21.4432C24.7934 21.0171 25.025 20.4394 25.0256 19.8368V7.91745C25.0248 7.31503 24.7931 6.73753 24.3814 6.31162C23.9697 5.88572 23.4116 5.64618 22.8295 5.64555H4.61614Z" fill="black"/>
<path d="M13.7123 16.546C12.9087 16.5542 12.1258 16.2818 11.4901 15.7728L1.24671 7.32517C1.04806 7.16123 0.920469 6.92234 0.892016 6.66105C0.863562 6.39976 0.936574 6.13748 1.09499 5.9319C1.2534 5.72631 1.48424 5.59428 1.73673 5.56483C1.98922 5.53539 2.24266 5.61095 2.44132 5.77488L12.6817 14.2226C12.9842 14.4446 13.3461 14.5634 13.717 14.5624C14.0879 14.5614 14.4492 14.4407 14.7506 14.217L24.8645 5.77885C25.0622 5.61386 25.315 5.53688 25.5675 5.56483C25.82 5.59279 26.0514 5.7234 26.2109 5.92793C26.3703 6.13246 26.4447 6.39415 26.4177 6.65544C26.3906 6.91673 26.2644 7.15622 26.0668 7.32121L15.9559 15.7594C15.3159 16.2773 14.5247 16.5547 13.7123 16.546Z" fill="black"/>
</g>
<defs>
<clipPath id="clip0_556_2325">
<rect width="26.8193" height="27.7545" fill="white" transform="translate(0.313477)"/>
</clipPath>
</defs>
</svg>
