<?xml version="1.0" encoding="utf-8"?>
<!-- Generator: Adobe Illustrator 26.2.1, SVG Export Plug-In . SVG Version: 6.00 Build 0)  -->
<svg version="1.1" id="Capa_1" xmlns="http://www.w3.org/2000/svg" xmlns:xlink="http://www.w3.org/1999/xlink" x="0px" y="0px"
	 viewBox="0 0 250 250" style="enable-background:new 0 0 250 250;" xml:space="preserve">
<style type="text/css">
	.st0{fill:#FFFFFF;}
	.st1{display:none;}
	.st2{display:inline;fill:none;stroke:#D8D8D8;stroke-width:0.5;stroke-miterlimit:10;}
</style>
<g>
	<path class="st0" d="M151.6,167.6c-5.7,5.6-17.5,7.6-26.2,7.6c-8.7,0-20.6-2-26.2-7.6c-1.3-1.3-3.5-1.3-4.8,0
		c-1.3,1.3-1.3,3.5,0,4.8c8.7,8.8,25.8,9.5,30.8,9.5c4.9,0,21.9-0.6,30.8-9.5c1.3-1.3,1.3-3.4,0.4-4.8
		C155.1,166.3,152.9,166.3,151.6,167.6z"/>
	<circle class="st0" cx="96.3" cy="138" r="13"/>
	<circle class="st0" cx="153.7" cy="138" r="13"/>
	<path class="st0" d="M125,0C56,0,0,56,0,125s56,125,125,125s125-56,125-125S194,0,125,0z M197.7,141.9c0.3,1.7,0.4,3.5,0.4,5.4
		c0,28-32.6,50.7-73,50.7c-40.4,0-73-22.6-73-50.7c0-1.9,0.1-3.8,0.4-5.6c-6.4-3-10.8-9.2-10.8-16.7c0-10.1,8.2-18.3,18.3-18.3
		c4.9,0,9.4,2,12.6,5.1c12.6-9.2,30-14.9,49.4-15.5l9.2-43.6c0.3-0.8,0.8-1.6,1.5-2c0.7-0.4,1.6-0.5,2.5-0.4l30.3,6.4
		c2-4.4,6.4-7.3,11.5-7.3c7.2,0,13,5.8,13,13c0,7.2-5.8,13-13,13c-7,0-12.7-5.5-13-12.4l-27-5.7l-8.3,39c19,0.7,36.3,6.6,48.7,15.5
		c3.2-3.2,7.6-5.1,12.6-5.1c10.1,0,18.3,8.2,18.3,18.3C208.3,132.5,203.8,138.9,197.7,141.9z"/>
</g>
<g id="Spacing_Guide" class="st1">
	<rect x="-45.9" y="-45.9" class="st2" width="85.4" height="85.4"/>
	<rect x="-45.9" y="-45.9" class="st2" width="341.8" height="85.4"/>
	<rect x="-45.9" y="210.4" class="st2" width="341.8" height="85.4"/>
	<rect x="-45.9" y="-45.9" class="st2" width="85.4" height="341.8"/>
	<rect x="210.5" y="-45.9" class="st2" width="85.4" height="341.8"/>
</g>
</svg>
