<?xml version="1.0" encoding="utf-8"?>
<!-- Generator: Adobe Illustrator 26.2.1, SVG Export Plug-In . SVG Version: 6.00 Build 0)  -->
<svg version="1.1" id="Capa_1" xmlns="http://www.w3.org/2000/svg" xmlns:xlink="http://www.w3.org/1999/xlink" x="0px" y="0px"
	 viewBox="0 0 250 250" style="enable-background:new 0 0 250 250;" xml:space="preserve">
<style type="text/css">
	.st0{fill:#FFFFFF;}
	.st1{display:none;}
	.st2{display:inline;fill:none;stroke:#D8D8D8;stroke-width:0.5;stroke-miterlimit:10;}
</style>
<g>
	<circle class="st0" cx="125" cy="125" r="125"/>
	<path d="M208.3,125c0-10.1-8.2-18.3-18.3-18.3c-5,0-9.4,1.9-12.6,5.1c-12.4-8.9-29.7-14.8-48.7-15.5l8.3-39l27,5.7
		c0.3,6.9,6,12.4,13,12.4c7.2,0,13-5.8,13-13c0-7.2-5.8-13-13-13c-5.1,0-9.5,2.9-11.5,7.3l-30.3-6.4c-0.9-0.1-1.8,0-2.5,0.4
		c-0.7,0.4-1.2,1.2-1.5,2l-9.2,43.6c-19.4,0.6-36.8,6.3-49.4,15.5c-3.2-3.1-7.7-5.1-12.6-5.1c-10.1,0-18.3,8.2-18.3,18.3
		c0,7.5,4.4,13.7,10.8,16.7c-0.3,1.8-0.4,3.7-0.4,5.6c0,28.1,32.6,50.7,73,50.7s73-22.7,73-50.7c0-1.9-0.1-3.7-0.4-5.4
		C203.8,138.9,208.3,132.5,208.3,125z M83.3,138c0-7.2,5.8-13,13-13c7.2,0,13,5.8,13,13c0,7.2-5.8,13-13,13
		C89.2,151,83.3,145.2,83.3,138z M156,172.4c-8.9,8.9-25.9,9.5-30.8,9.5c-5,0-22.1-0.7-30.8-9.5c-1.3-1.3-1.3-3.5,0-4.8
		c1.3-1.3,3.5-1.3,4.8,0c5.6,5.6,17.5,7.6,26.2,7.6s20.5-2,26.2-7.6c1.3-1.3,3.5-1.3,4.8,0C157.3,169,157.3,171.1,156,172.4z
		 M153.7,151c-7.2,0-13-5.8-13-13c0-7.2,5.8-13,13-13c7.2,0,13,5.8,13,13C166.7,145.2,160.8,151,153.7,151z"/>
</g>
<g id="Spacing_Guide" class="st1">
	<rect x="-45.9" y="-45.9" class="st2" width="85.4" height="85.4"/>
	<rect x="-45.9" y="-45.9" class="st2" width="341.8" height="85.4"/>
	<rect x="-45.9" y="210.4" class="st2" width="341.8" height="85.4"/>
	<rect x="-45.9" y="-45.9" class="st2" width="85.4" height="341.8"/>
	<rect x="210.5" y="-45.9" class="st2" width="85.4" height="341.8"/>
</g>
</svg>
