<svg width="30" height="29" viewBox="0 0 30 29" fill="none" xmlns="http://www.w3.org/2000/svg">
<path d="M26.5104 3.59491C26.2606 3.37928 25.9567 3.23608 25.6314 3.18082C25.3061 3.12556 24.9719 3.16034 24.665 3.28139L3.75815 11.4948C3.39374 11.638 3.08548 11.8953 2.8795 12.2283C2.67352 12.5612 2.5809 12.9519 2.61549 13.3419C2.65008 13.7319 2.81002 14.1002 3.07139 14.3918C3.33276 14.6833 3.68149 14.8823 4.06541 14.9591L9.37591 16.0212V22.6543C9.37561 23.0129 9.48173 23.3635 9.68083 23.6618C9.87994 23.96 10.1631 24.1925 10.4944 24.3297C10.8257 24.467 11.1903 24.5028 11.542 24.4327C11.8937 24.3626 12.2167 24.1897 12.47 23.9359L15.4089 20.997L19.8695 24.9223C20.1979 25.2139 20.6217 25.3752 21.0609 25.3758C21.2518 25.3756 21.4415 25.3455 21.6231 25.2866C21.9227 25.1916 22.1921 25.0197 22.4045 24.7881C22.6168 24.5564 22.7648 24.2732 22.8335 23.9665L27.0944 5.37333C27.1686 5.05183 27.1534 4.71614 27.0504 4.40266C26.9475 4.08917 26.7607 3.80983 26.5104 3.59491ZM10.0721 14.312L4.42107 13.1818L20.2444 6.96549L10.0721 14.312ZM11.1884 22.6534V17.283L14.0453 19.7971L11.1884 22.6534ZM21.0668 23.5616L11.7333 15.3481L25.1736 5.64133L21.0668 23.5616Z" fill="black"/>
</svg>
