<?xml version="1.0" encoding="utf-8"?>
<!-- Generator: Adobe Illustrator 26.2.1, SVG Export Plug-In . SVG Version: 6.00 Build 0)  -->
<svg version="1.1" id="Capa_1" xmlns="http://www.w3.org/2000/svg" xmlns:xlink="http://www.w3.org/1999/xlink" x="0px" y="0px"
	 viewBox="0 0 250 250" style="enable-background:new 0 0 250 250;" xml:space="preserve">
<style type="text/css">
	.st0{fill:#FFFFFF;}
</style>
<path class="st0" d="M250,47.3c-9.2,4.2-19.1,6.9-29.5,8.1c10.6-6.4,18.7-16.4,22.5-28.3c-10,5.8-20.8,10.2-32.7,12.5
	c-9.4-10-22.7-16.2-37.4-16.2c-28.3,0-51.4,22.9-51.4,51.4c0,4,0.4,7.9,1.2,11.6C80.1,84.3,42.2,64,17.1,32.8
	c-4.4,7.5-6.9,16.4-6.9,25.8c0,17.9,9.2,33.5,22.9,42.6c-8.3-0.2-16.2-2.5-23.3-6.4c0,0.2,0,0.4,0,0.6c0,25,17.7,45.5,41.2,50.3
	c-4.4,1.2-8.7,1.9-13.5,1.9c-3.3,0-6.4-0.4-9.6-0.8c6.4,20.4,25.4,35.1,47.8,35.6c-17.3,13.7-39.5,21.8-63.4,21.8
	c-4.2,0-8.3-0.2-12.3-0.6c22.7,14.6,49.7,23.1,78.6,23.1c94.4,0,146-78.2,146-146c0-2.3,0-4.4-0.2-6.7
	C234.4,66.7,243.1,57.7,250,47.3z"/>
</svg>
