<?xml version="1.0" encoding="utf-8"?>
<!-- Generator: Adobe Illustrator 26.2.1, SVG Export Plug-In . SVG Version: 6.00 Build 0)  -->
<svg version="1.1" id="Capa_1" xmlns="http://www.w3.org/2000/svg" xmlns:xlink="http://www.w3.org/1999/xlink" x="0px" y="0px"
	 viewBox="0 0 1216.6 311.5" style="enable-background:new 0 0 1216.6 311.5;" xml:space="preserve">
<style type="text/css">
	.st0{opacity:0.79;}
	.st1{fill:none;stroke:#02EEB5;stroke-width:2;stroke-miterlimit:10;}
	.st2{filter:url(#Adobe_OpacityMaskFilter);}
	.st3{mask:url(#SVGID_1_);}
	.st4{fill:#02EEB5;}
	.st5{fill:#15AD85;}
	.st6{fill:#E61B72;}
</style>
<g class="st0">
	<g>
		<path d="M1087,266.3H129.7c-53.2,0-96.3-43.1-96.3-96.3v-42.3c0-53.2,43.1-96.3,96.3-96.3H1087c53.2,0,96.3,43.1,96.3,96.3V170
			C1183.3,223.2,1140.2,266.3,1087,266.3z"/>
		<path class="st1" d="M1087,266.3H129.7c-53.2,0-96.3-43.1-96.3-96.3v-42.3c0-53.2,43.1-96.3,96.3-96.3H1087
			c53.2,0,96.3,43.1,96.3,96.3V170C1183.3,223.2,1140.2,266.3,1087,266.3z"/>
	</g>
	<defs>
		<filter id="Adobe_OpacityMaskFilter" filterUnits="userSpaceOnUse" x="32.3" y="30.4" width="1151.9" height="236.9">
			
				<feColorMatrix  type="matrix" values="-1 0 0 0 1  0 -1 0 0 1  0 0 -1 0 1  0 0 0 1 0" color-interpolation-filters="sRGB" result="source"/>
		</filter>
	</defs>
	<mask maskUnits="userSpaceOnUse" x="32.3" y="30.4" width="1151.9" height="236.9" id="SVGID_1_">
		<g class="st2">
			
				<image style="overflow:visible;" width="4817" height="1005" xlink:href="A40FF20A.jpg"  transform="matrix(0.24 0 0 0.24 30.24 28.2932)">
			</image>
		</g>
	</mask>
	<g class="st3">
		<path class="st4" d="M1087,266.3H129.7c-53.2,0-96.3-43.1-96.3-96.3v-42.3c0-53.2,43.1-96.3,96.3-96.3H1087
			c53.2,0,96.3,43.1,96.3,96.3V170C1183.3,223.2,1140.2,266.3,1087,266.3z"/>
		<path class="st1" d="M1087,266.3H129.7c-53.2,0-96.3-43.1-96.3-96.3v-42.3c0-53.2,43.1-96.3,96.3-96.3H1087
			c53.2,0,96.3,43.1,96.3,96.3V170C1183.3,223.2,1140.2,266.3,1087,266.3z"/>
	</g>
</g>
<polygon class="st5" points="33.3,89 0,155.7 33.3,222.4 66.7,222.4 33.3,155.7 66.7,89 "/>
<polygon class="st5" points="1183.3,222.4 1216.6,155.7 1183.3,89 1149.9,89 1183.3,155.7 1149.9,222.4 "/>
<polygon class="st4" points="533.4,48.3 547.9,62.8 616.5,62.8 685.1,62.8 699.6,48.3 764.3,48.3 778.8,33.8 749.8,0 670.6,0 
	641.6,33.8 616.5,33.8 591.4,33.8 562.4,0 483.2,0 454.2,33.8 468.7,48.3 "/>
<polygon class="st6" points="485.5,4.9 560.1,4.9 587.6,37 589.1,38.7 591.4,38.7 616.5,38.7 641.6,38.7 643.9,38.7 645.4,37 
	672.9,4.9 747.5,4.9 772,33.5 762.2,43.4 699.6,43.4 697.5,43.4 696.1,44.8 683,57.8 616.5,57.8 550,57.8 536.9,44.8 535.5,43.4 
	533.4,43.4 470.8,43.4 461,33.5 "/>
<polygon class="st4" points="699.6,263.2 685.1,248.7 616.5,248.7 547.9,248.7 533.4,263.2 468.7,263.2 454.2,277.7 483.2,311.5 
	562.4,311.5 591.4,277.7 616.5,277.7 641.6,277.7 670.6,311.5 749.8,311.5 778.8,277.7 764.3,263.2 "/>
<polygon class="st5" points="747.5,306.5 672.9,306.5 645.4,274.5 643.9,272.7 641.6,272.7 616.5,272.7 591.4,272.7 589.1,272.7 
	587.6,274.5 560.1,306.5 485.5,306.5 461,277.9 470.8,268.1 533.4,268.1 535.5,268.1 536.9,266.7 550,253.6 616.5,253.6 683,253.6 
	696.1,266.7 697.5,268.1 699.6,268.1 762.2,268.1 772,277.9 "/>
<polygon class="st5" points="604.9,240.6 628.1,240.8 616.4,229.1 "/>
<polygon class="st5" points="628.1,70.9 604.9,70.6 616.6,82.4 "/>
</svg>
