<?xml version="1.0" encoding="utf-8"?>
<!-- Generator: Adobe Illustrator 26.2.1, SVG Export Plug-In . SVG Version: 6.00 Build 0)  -->
<svg version="1.1" id="Capa_1" xmlns="http://www.w3.org/2000/svg" xmlns:xlink="http://www.w3.org/1999/xlink" x="0px" y="0px"
	 viewBox="0 0 506.2 397.2" style="enable-background:new 0 0 506.2 397.2;" xml:space="preserve">
<style type="text/css">
	.st0{fill:#FFFFFF;}
</style>
<g>
	<g>
		<path class="st0" d="M506.2,229.1c0.4-9.1-15.4-8.5-21.8-12.1c8.8-3.9,3.5-17.8,5-25.5c-0.4-6.6-8.6-3.8-13-5.3
			c-10.4-0.3-11.7-13.4-18.2-19.4C379.8-78.7,72.5-42.5,30,205.3c-7.5,4.2-33.4,6.4-29.6,17.7c4.4,9.4-0.8,20.8,5.6,29.2
			c1.8,3.8,3.4,9,8.2,4.9c9.2,7.4,18.2,13.8,23.6,24.6c8.1,12.1,21.1,19.1,31.5,28.9c6.3,6.7,13.3-4,20.1,5.6
			c4.4,6.2,8.1,40.8,15.8,40.2c3.2-0.5,10.1,0.4,9.2-4.6c-15.6-59.8,7.3-27.3,36-9c8.7,2.6,19.4,0.4,27.7,3.7
			c7.5,17.4,5,10.2,21,17.9c0.9,0.4,2,1.3,2.1,2.1c0.5,5.1,3.1,9.5,5.1,14c2.8,6.2,12,17.6,19.3,16.6c4.7-1.1,31.2-2.6,28.5-8.9
			c-1.3-8.1-1.9-20.8,8.4-22.5c2.6,3.9,29.8-8.2,35.4-9.6c21.8-8.6,7.5-14.9,30.7-21.7c1.6,5.6,6.5,1.6,10.2,1.3
			c3.5,0,4.6-3.6,5.2-6.3c0.8-4.6,15.6-8.7,20.2-11.2c-1.4,5.8,1.1,15.9-1.4,20c-0.6,0.6-0.3,2.1-0.4,3.3c0.2,0.1,0.4,0.1,0.6,0.2
			c0.4-0.4,0.8-0.8,1-1c2.5,1.7,2.6-0.3,3.1-2.1c2.6-0.8,0.3-3.6,0.2-5.3c-0.7-6.1,3.6-0.8,3-7.2c4.2,1.6-2.4,6.2,0.2,8.4
			c1.9,0.8,0.4,2.1,1.5,3.7c1.8-1.1,1.8-4.2,3.8-2.8c0.6,0.4,1.8,0.7,2.1,0.4c1.9-1,0-5.1-2.1-3.4c-0.3,0.2-0.8,0.1-1.3,0.2
			c0-2.2,0-4.2,0-6.4c2.2,1,1.7,5.1,5.2,4.2c3.9,15.2-2.2,4.1-3.1,10.6c0.6,1.9-0.7,6.3,1.8,6.7c3-1.4-0.4-6.7,3.8-5.5
			c1-2.2,3.2-0.7,4.5-1.6c0.8,3.1,1.6,6,2.4,9c0.2,0,0.4-0.1,0.6-0.1c0.9-5.5,1.7-10.9,2.6-16.5c0.8,2.4,1.5,4.8,3.5,6.5
			c1.9-4.2-1.4-11.9,3.7-13.4c0.6,1.2,1.2,2.3,1.9,3.7c8.8-26.5,14.7,2.9,32.2-44.6c6.1,3,13.7-11.4,24.6-11.7
			c11.5-2,14.9-15.8,25.8-20.2c0.5,4.3-3.2,19.2,1.5,20c5.2,0,4.5-22.9,10.1-25.7c4.8,6.1,9.7,3.5,4.4-2.5
			C497.5,240.6,506.2,234.4,506.2,229.1z M249.3,13c4.4,0,8.8,0.2,13.2,0.5c-15.1,7-13.5,5.7-28.7,0.2C239,13.2,244.1,13,249.3,13z
			 M79,229.4c-11.4-3.2-22.6-7.2-33.8-11c1.3-93,91.5-221.3,193.7-193.4c-66.5,46.1-92.7,131.4-94.7,217.3
			C122.3,239.4,100.5,235.3,79,229.4z M327,245.6c-63.3,5.7-116.7,4.4-173.6-2.1C155.1,158.9,181.2,72,249,29.6
			c69.5,40.5,96.6,129,98.7,213.8C340.8,244.2,333.9,244.9,327,245.6z M387.1,337.8c-1.4-1.3-1.4-2.4,0.3-3.7
			C387.3,335.6,387.2,336.6,387.1,337.8z M399.7,234.7c-14.2,3.1-28.6,5.5-43,7.5c-2.3-86-29.6-173.2-97.9-217.5
			C359.5-5,453.4,127,453.4,219C436,225.8,418,230.7,399.7,234.7z"/>
		<path class="st0" d="M374.8,355.8c0.2-2.7-0.8-4.9-2.5-7c-0.5,0.6-0.8,1-1.2,1.5c-5.9-1.1-5.3,9.5,2.5,6.9c0.2,3.7-2.2,8,1.3,10.5
			C379,365.1,376.4,359,374.8,355.8z"/>
		<path class="st0" d="M405.8,330.8c-2.6-0.8-2.8,2.4-3.9,4.1c-2.7-1.7-5.4,3.1-2.1,4.3c1.8,0.6,2.7-0.4,3.2-2.2
			C408.5,340.2,409.6,332.3,405.8,330.8z"/>
		<path class="st0" d="M402.4,345.5c-2.1,2-0.1,10.2,1,12.7c0.2,0,0.4,0,0.6,0C404.8,354.3,405.2,348.7,402.4,345.5z"/>
		<path class="st0" d="M384.9,360.2c0-4.8-4.7-4-4-0.1c0.3,5,2.4,5.2,4.5,0.4C385.2,360.4,385.1,360.3,384.9,360.2z"/>
		<path class="st0" d="M369.3,364.7c-0.7,2.3-0.8,8.5,2.5,8.9C372.4,370.5,372.5,366.1,369.3,364.7z"/>
		<path class="st0" d="M398,345.6c-0.9,0.2-1.6,1.1-2.4,1.7C397.2,354.8,404.2,346.6,398,345.6z"/>
		<path class="st0" d="M389.1,357.7c1.7-1.6,1.2-5.9-0.9-7.9C387.1,351.8,387.6,356,389.1,357.7z"/>
		<path class="st0" d="M394,365.6c1.2-2.1,1-4.1,0.3-6.5C392.5,361.5,392.3,364.4,394,365.6z"/>
		<path class="st0" d="M384.9,380c-1.1,1.5-1.1,2.5,0.5,3.6C387.1,382.6,386.9,379.9,384.9,380z"/>
		<path class="st0" d="M384.3,350.2c0.2-1.5,0.5-2.6,0.6-3.8C383.1,344.4,382.6,349.1,384.3,350.2z"/>
		<path class="st0" d="M374.6,343c-0.1-1-0.1-2-0.2-3.3C371.5,340.9,371.9,343.5,374.6,343z"/>
	</g>
</g>
</svg>
