<?xml version="1.0" encoding="utf-8"?>
<!-- Generator: Adobe Illustrator 26.2.1, SVG Export Plug-In . SVG Version: 6.00 Build 0)  -->
<svg version="1.1" id="Capa_1" xmlns="http://www.w3.org/2000/svg" xmlns:xlink="http://www.w3.org/1999/xlink" x="0px" y="0px"
	 viewBox="0 0 91.4 45" style="enable-background:new 0 0 91.4 45;" xml:space="preserve">
<style type="text/css">
	.st0{fill:#15AD85;}
	.st1{opacity:0.28;fill:#15AD85;enable-background:new    ;}
	.st2{fill:#FFFFFF;}
</style>
<g>
	<polygon class="st0" points="67.2,36 76.4,25.9 85.6,36 85.6,18 76.4,7.9 67.2,18 	"/>
</g>
<g>
	<polygon class="st1" points="85.6,40 76.4,29.9 67.2,40 	"/>
</g>
<path class="st1" d="M76.4,0l-15,15v0.5H0v17.8L6.9,40h54.6v5h30V15L76.4,0z M88.4,42h-24V16.2l12-12l12,12V42z"/>
<g>
	<path class="st2" d="M5,20.5h16.3v2.6h-6.6v11.8h-3V23.2H5V20.5z"/>
	<path class="st2" d="M24.9,20.5h10c0.9,0,1.6,0.3,2.2,0.8c0.6,0.5,0.9,1.2,0.9,2v8.8c0,0.8-0.3,1.4-0.9,2c-0.6,0.5-1.4,0.8-2.2,0.8
		h-10c-0.9,0-1.6-0.3-2.2-0.8c-0.6-0.5-0.9-1.2-0.9-2v-8.8c0-0.8,0.3-1.4,0.9-2C23.3,20.8,24,20.5,24.9,20.5z M24.9,32.3h10
		c0.1,0,0.1,0,0.1-0.1v-8.8c0-0.1,0-0.1-0.1-0.1h-10c-0.1,0-0.2,0-0.2,0.1v8.8C24.8,32.2,24.8,32.3,24.9,32.3z"/>
	<path class="st2" d="M39.4,20.5h13.1c0.9,0,1.6,0.3,2.2,0.8c0.6,0.5,0.9,1.2,0.9,2v3.9c0,0.8-0.3,1.4-0.9,2
		c-0.6,0.5-1.4,0.8-2.2,0.8l-10.1,0l-0.1,0v4.9h-3V20.5z M52.7,27.2v-3.9c0-0.1-0.1-0.1-0.2-0.1h-10c-0.1,0-0.2,0-0.2,0.1v3.9
		c0,0.1,0.1,0.1,0.2,0.1h10C52.6,27.4,52.7,27.3,52.7,27.2z"/>
</g>
</svg>
